<svg width="812" height="720" viewBox="0 0 812 720" fill="none" xmlns="http://www.w3.org/2000/svg">
  <style>
    .animate {
      stroke-dasharray: 2000; /* Length of the path */
      stroke-dashoffset: 2000; /* Initially hides the path */
      animation: dash 5s linear forwards, colorMove 5s linear infinite alternate;
    }
    @keyframes dash {
      0%, 25% {
        stroke-dashoffset: 0; /* Start of the path */
      }
      100% {
        stroke-dashoffset: 2000; /* End of the path */
      }
    }
    @keyframes colorMove {
      0% {
        stroke: green; /* Start color */
      }
      100% {
        stroke: red; /* End color */
      }
    }
  </style>
  <path class="animate" d="M1000.71 869.798H709.354L191.161 869.675C191.156 869.675 191.151 869.675 191.146 869.675C76.8546 866.02 -14.6804 772.231 -14.6804 657.05C-14.6804 589.747 13.7131 536.402 63.0475 492.136L63.0545 492.129L127.55 433.136L325.308 252.243L468.527 383.2C468.53 383.202 468.533 383.205 468.536 383.208C474.342 388.776 477.956 396.608 477.956 405.285C477.956 414.055 474.265 421.962 468.349 427.536C468.347 427.538 468.345 427.54 468.343 427.542L234.062 641.757L232.161 643.495H234.736C392.569 643.495 551.685 643.495 709.355 643.535C738.086 643.535 764.317 654.248 784.272 671.899C784.273 671.901 784.276 671.902 784.277 671.904L1000.71 869.798ZM203.342 138.676L-13.1014 -59.2283H789.531H789.54L796.445 -59.1043C796.447 -59.1042 796.45 -59.1042 796.452 -59.1041C910.747 -55.4531 1002.29 38.3376 1002.29 153.52C1002.29 219.079 972.626 277.701 925.997 316.728L925.878 316.827L925.795 316.957C925.278 317.768 924.047 319.181 922.185 321.103C920.346 323.002 917.951 325.338 915.166 327.974C909.597 333.247 902.492 339.701 895.199 346.231C887.749 352.901 880.096 359.659 873.696 365.309C867.581 370.708 862.61 375.097 860.056 377.434L662.298 558.326L519.079 427.37C519.076 427.367 519.073 427.364 519.069 427.361C513.263 421.793 509.65 413.961 509.65 405.285C509.65 396.514 513.341 388.607 519.258 383.032C519.26 383.031 519.261 383.029 519.263 383.028L753.544 168.812L755.445 167.074H752.869C595.038 167.074 435.923 167.074 278.252 167.035C249.545 167.035 223.334 156.34 203.386 138.717L203.342 138.676Z" stroke="white" stroke-width="5"/>
</svg>
